# xmcd CD database file
#
# Track frame offsets:
#	150
#	31081
#	76447
#	114342
#	144468
#	177634
#	222693
#
# Disc length: 3316 seconds
#
# Revision: 0
# Processed by: cddbd v1.5.2PL0 Copyright (c) Steve Scherf et al.
# Submitted via: CDex 1.51
#
DISCID=610cf207
DTITLE=No Name Jazz Sextet - Plonger
DYEAR=2006
DGENRE=Jazz
TTITLE0=Plonger
TTITLE1=Autumn Twisted Wlak
TTITLE2=E.S.T.
TTITLE3=Ballade du Bic
TTITLE4=Dolly Deluxe
TTITLE5=Major Minorities
TTITLE6=Little Booker Blues
EXTD=YEAR: 2006
EXTT0=
EXTT1=
EXTT2=
EXTT3=
EXTT4=
EXTT5=
EXTT6=
PLAYORDER=
